<?xml version="1.0" encoding="UTF-8" standalone="no" ?>
<!DOCTYPE svg PUBLIC "-//W3C//DTD SVG 1.1//EN" "http://www.w3.org/Graphics/SVG/1.1/DTD/svg11.dtd">
<svg xmlns="http://www.w3.org/2000/svg" xmlns:xlink="http://www.w3.org/1999/xlink" version="1.1" width="512" height="512" viewBox="0 0 512 512" xml:space="preserve">
<desc>Created with Fabric.js 5.2.4</desc>
<defs>
</defs>
<rect x="0" y="0" width="100%" height="100%" fill="transparent"></rect>
<g transform="matrix(0 0 0 0 0 0)" id="60908d42-29a4-4d55-972c-c66f623849de"  >
</g>
<g transform="matrix(1 0 0 1 256 256)" id="3e6f290a-e5e0-4f82-90e6-f11923fd742a"  >
<rect style="stroke: none; stroke-width: 1; stroke-dasharray: none; stroke-linecap: butt; stroke-dashoffset: 0; stroke-linejoin: miter; stroke-miterlimit: 4; fill: rgb(255,255,255); fill-rule: nonzero; opacity: 1; visibility: hidden;" vector-effect="non-scaling-stroke"  x="-256" y="-256" rx="0" ry="0" width="512" height="512" />
</g>
<g transform="matrix(0.94 0 0 0.94 249.58 229.46)"  >
<path style="stroke: none; stroke-width: 1; stroke-dasharray: none; stroke-linecap: butt; stroke-dashoffset: 0; stroke-linejoin: miter; stroke-miterlimit: 4; fill: rgb(223,34,139); fill-rule: nonzero; opacity: 1;" vector-effect="non-scaling-stroke"  transform=" translate(-250.85, -257.18)" d="M 372.875 190.321 C 366.373 136.53 333.622 99.092 281.477 99.092 C 272.582 99.092 263.952 97.211 255.72199999999998 99.484 C 227.97799999999998 107.14699999999999 204.78999999999996 126.898 191.37899999999996 153.16199999999998 C 189.65999999999997 156.528 185.64099999999996 158.06699999999998 182.17199999999997 156.56499999999997 C 173.27799999999996 152.71199999999996 163.55299999999997 150.58999999999997 153.36399999999998 150.58999999999997 C 111.01299999999998 150.58999999999997 76.68199999999997 187.24999999999997 76.68199999999997 232.47199999999998 L 76.68199999999997 232.68599999999998 C 76.68299999999998 238.30199999999996 72.56299999999997 242.992 67.02299999999997 243.91899999999998 C 29.68699999999997 250.17 0.7199999999999704 291.346 0.011999999999972033 332.414 C -0.780000000000028 378.378 35.29799999999997 416 78.34999999999997 416 L 364.24499999999995 416 L 405.45199999999994 414.97 C 458.60699999999997 414.97 501.69699999999995 360.76000000000005 501.69699999999995 304.00100000000003 C 501.69699999999995 247.24200000000002 468.90799999999996 201.65400000000005 415.75399999999996 201.65400000000005 z" stroke-linecap="round" />
</g>
<g transform="matrix(0.94 0 0 0.94 373.72 228.34)"  >
<path style="stroke: none; stroke-width: 1; stroke-dasharray: none; stroke-linecap: butt; stroke-dashoffset: 0; stroke-linejoin: miter; stroke-miterlimit: 4; fill: rgb(18,30,41); fill-rule: nonzero; opacity: 1;" vector-effect="non-scaling-stroke"  transform=" translate(-383.86, -256)" d="M 415.755 191.351 L 389.399 191.351 C 385.921 191.351 382.904 188.874 382.309 185.447 C 373.485 134.549 331.697 96.001 281.47700000000003 96.001 C 272.58200000000005 96.001 263.95200000000006 97.21000000000001 255.72200000000004 99.483 C 292.09600000000006 109.529 320.639 140.35500000000002 329.583 179.393 C 331.18800000000005 186.398 337.44100000000003 191.35 344.627 191.35 L 364.246 191.35 C 417.40099999999995 191.35 460.491 247.24 460.491 303.999 C 460.491 360.75800000000004 417.40099999999995 415.99800000000005 364.246 415.99800000000005 L 415.755 415.99800000000005 C 468.90999999999997 415.999 512 360.75800000000004 512 304.00000000000006 C 512 247.24200000000008 468.90999999999997 191.35100000000006 415.755 191.35100000000006 z" stroke-linecap="round" />
</g>
<g transform="matrix(7.92 0 0 7.92 241.04 257.84)"  >
<path style="stroke: none; stroke-width: 1; stroke-dasharray: none; stroke-linecap: butt; stroke-dashoffset: 0; stroke-linejoin: miter; stroke-miterlimit: 4; fill: rgb(60,55,224); fill-rule: nonzero; opacity: 1;" vector-effect="non-scaling-stroke"  transform=" translate(-14.32, -9.75)" d="M 9.635 12.041 C 13.23 10.848 16.447 11.456 16.447 11.456 L 16.458 12.392999999999999 C 16.473999999999997 13.906999999999998 16.887999999999998 14.044999999999998 16.887999999999998 14.044999999999998 C 17.866999999999997 14.809999999999999 18.755 13.991999999999997 18.755 13.991999999999997 C 18.755 13.991999999999997 25.017 9.381999999999998 25.180999999999997 9.260999999999997 C 25.345 9.138999999999998 26.313999999999997 8.537999999999997 26.316999999999997 6.961999999999998 C 26.317999999999998 5.383999999999998 24.986999999999995 4.631999999999998 24.986999999999995 4.631999999999998 C 24.986999999999995 4.631999999999998 19.816999999999993 1.1119999999999979 18.774999999999995 0.4029999999999978 C 17.730999999999995 -0.30700000000000216 17.145999999999994 0.1359999999999978 17.145999999999994 0.1359999999999978 C 16.377999999999993 0.6379999999999978 16.447999999999993 1.2959999999999976 16.447999999999993 1.2959999999999976 L 16.447999999999993 3.1359999999999975 C 10.637999999999995 4.328999999999997 6.572999999999993 7.857999999999998 6.572999999999993 7.857999999999998 C 0.9859999999999935 12.608999999999998 2.523999999999993 19.211 2.523999999999993 19.211 C 2.523999999999993 19.211 2.5379999999999927 19.506999999999998 3.103999999999993 19.506999999999998 C 3.746999999999993 19.506999999999998 3.753999999999993 19.110999999999997 3.753999999999993 19.110999999999997 C 4.02 16.863 6.04 13.234 9.635 12.041 z" stroke-linecap="round" />
</g>
<g transform="matrix(7.92 0 0 7.92 264.5 354.14)"  >
<path style="stroke: none; stroke-width: 1; stroke-dasharray: none; stroke-linecap: butt; stroke-dashoffset: 0; stroke-linejoin: miter; stroke-miterlimit: 4; fill: rgb(60,55,224); fill-rule: nonzero; opacity: 1;" vector-effect="non-scaling-stroke"  transform=" translate(-17.25, -21.82)" d="M 29.046 12.355 C 29.046 12.355 29.031 12.061 28.468 12.061 C 27.822 12.061 27.818 12.457 27.818 12.457 C 27.55 14.704 25.532 18.332 21.936 19.527 C 18.339 20.719 15.123999999999999 20.111 15.123999999999999 20.111 L 15.113 19.174 C 15.097999999999999 17.656 14.684999999999999 17.522 14.684999999999999 17.522 C 13.706 16.756 12.815999999999999 17.575 12.815999999999999 17.575 C 12.815999999999999 17.575 6.554999999999999 22.186 6.390999999999999 22.307 C 6.225999999999999 22.427999999999997 5.260999999999999 23.029 5.257 24.607 C 5.253 26.182 6.584 26.936 6.584 26.936 C 6.584 26.936 11.751999999999999 30.455 12.795 31.165 C 13.838 31.875999999999998 14.425 31.433999999999997 14.425 31.433999999999997 C 15.192 30.929999999999996 15.123000000000001 30.276999999999997 15.123000000000001 30.276999999999997 L 15.123000000000001 28.433999999999997 C 20.934 27.243 24.998 23.709999999999997 24.998 23.709999999999997 C 30.585 18.958 29.046 12.355 29.046 12.355 z" stroke-linecap="round" />
</g>
</svg>