<?xml version="1.0" encoding="UTF-8" standalone="no" ?>
<!DOCTYPE svg PUBLIC "-//W3C//DTD SVG 1.1//EN" "http://www.w3.org/Graphics/SVG/1.1/DTD/svg11.dtd">
<svg xmlns="http://www.w3.org/2000/svg" xmlns:xlink="http://www.w3.org/1999/xlink" version="1.1" width="1080" height="500" viewBox="0 0 1080 500" xml:space="preserve">
<desc>Created with Fabric.js 5.2.4</desc>
<defs>
</defs>
<g transform="matrix(1 0 0 1 540 250)" id="f3bf2a4c-49a7-4088-8d12-46409603121e"  >
<rect style="stroke: none; stroke-width: 1; stroke-dasharray: none; stroke-linecap: butt; stroke-dashoffset: 0; stroke-linejoin: miter; stroke-miterlimit: 4; fill: rgb(255,255,255); fill-rule: nonzero; opacity: 1; visibility: hidden;" vector-effect="non-scaling-stroke"  x="-540" y="-250" rx="0" ry="0" width="1080" height="500" />
</g>
<g transform="matrix(Infinity NaN NaN Infinity 0 0)" id="22ac066d-b596-4c00-aaff-e1e5cf2890e8"  >
</g>
<g transform="matrix(4.93 0 0 4.93 540.4 250.97)"  >
<g style="" vector-effect="non-scaling-stroke"   >
		<g transform="matrix(0.52 0 0 0.52 0 17.19)"  >
<path style="stroke: none; stroke-width: 1; stroke-dasharray: none; stroke-linecap: butt; stroke-dashoffset: 0; stroke-linejoin: miter; stroke-miterlimit: 4; fill: rgb(60,55,224); fill-rule: nonzero; opacity: 1;" vector-effect="non-scaling-stroke"  transform=" translate(-0.74, 17.77)" d="M -190.2446875 0 L -203.5046875 0 L -203.5046875 -34.13 L -191.5546875 -34.13 Q -185.3446875 -34.13 -182.13468749999998 -31.75 Q -178.9246875 -29.37 -178.9246875 -24.77 L -178.9246875 -24.77 Q -178.9246875 -22.27 -180.2146875 -20.36 Q -181.5046875 -18.45 -183.7946875 -17.55 L -183.7946875 -17.55 Q -181.1746875 -16.9 -179.6646875 -14.91 Q -178.1446875 -12.91 -178.1446875 -10.03 L -178.1446875 -10.03 Q -178.1446875 -5.11 -181.2846875 -2.58 Q -184.4246875 -0.05 -190.2446875 0 L -190.2446875 0 Z M -190.0346875 -14.86 L -196.4746875 -14.86 L -196.4746875 -5.65 L -190.4546875 -5.65 Q -187.9646875 -5.65 -186.5746875 -6.83 Q -185.1746875 -8.02 -185.1746875 -10.1 L -185.1746875 -10.1 Q -185.1746875 -14.79 -190.0346875 -14.86 L -190.0346875 -14.86 Z M -196.4746875 -28.43 L -196.4746875 -19.83 L -191.2746875 -19.83 Q -185.9546875 -19.92 -185.9546875 -24.07 L -185.9546875 -24.07 Q -185.9546875 -26.39 -187.3046875 -27.41 Q -188.6446875 -28.43 -191.5546875 -28.43 L -191.5546875 -28.43 L -196.4746875 -28.43 Z M -161.651875 0.47 L -161.651875 0.47 Q -167.221875 0.47 -170.731875 -2.95 Q -174.231875 -6.38 -174.231875 -12.07 L -174.231875 -12.07 L -174.231875 -12.73 Q -174.231875 -16.55 -172.761875 -19.56 Q -171.281875 -22.57 -168.571875 -24.2 Q -165.871875 -25.83 -162.401875 -25.83 L -162.401875 -25.83 Q -157.191875 -25.83 -154.211875 -22.55 Q -151.221875 -19.27 -151.221875 -13.24 L -151.221875 -13.24 L -151.221875 -10.48 L -167.371875 -10.48 Q -167.041875 -7.99 -165.381875 -6.49 Q -163.731875 -4.99 -161.201875 -4.99 L -161.201875 -4.99 Q -157.291875 -4.99 -155.081875 -7.83 L -155.081875 -7.83 L -151.761875 -4.1 Q -153.281875 -1.95 -155.881875 -0.74 Q -158.481875 0.47 -161.651875 0.47 Z M -162.421875 -20.34 L -162.421875 -20.34 Q -164.441875 -20.34 -165.691875 -18.98 Q -166.941875 -17.63 -167.291875 -15.09 L -167.291875 -15.09 L -157.871875 -15.09 L -157.871875 -15.63 Q -157.921875 -17.88 -159.09187500000002 -19.11 Q -160.261875 -20.34 -162.421875 -20.34 Z M -133.6365625 -7.01 L -133.6365625 -7.01 Q -133.6365625 -8.25 -134.8665625 -8.96 Q -136.0965625 -9.68 -138.8165625 -10.24 L -138.8165625 -10.24 Q -147.8665625 -12.14 -147.8665625 -17.93 L -147.8665625 -17.93 Q -147.8665625 -21.3 -145.0665625 -23.57 Q -142.2665625 -25.83 -137.7465625 -25.83 L -137.7465625 -25.83 Q -132.9165625 -25.83 -130.0165625 -23.55 Q -127.1265625 -21.28 -127.1265625 -17.65 L -127.1265625 -17.65 L -133.89656250000002 -17.65 Q -133.89656250000002 -19.1 -134.8365625 -20.05 Q -135.7765625 -21 -137.7665625 -21 L -137.7665625 -21 Q -139.4765625 -21 -140.4165625 -20.23 Q -141.3465625 -19.45 -141.3465625 -18.26 L -141.3465625 -18.26 Q -141.3465625 -17.13 -140.2865625 -16.44 Q -139.2165625 -15.75 -136.6865625 -15.25 Q -134.1565625 -14.74 -132.4265625 -14.11 L -132.4265625 -14.11 Q -127.0565625 -12.14 -127.0565625 -7.29 L -127.0565625 -7.29 Q -127.0565625 -3.82 -130.0265625 -1.68 Q -133.0065625 0.47 -137.7165625 0.47 L -137.7165625 0.47 Q -140.9065625 0.47 -143.3765625 -0.67 Q -145.8465625 -1.8 -147.2565625 -3.79 Q -148.6665625 -5.77 -148.6665625 -8.06 L -148.6665625 -8.06 L -142.2465625 -8.06 Q -142.1465625 -6.26 -140.9065625 -5.3 Q -139.6665625 -4.34 -137.5765625 -4.34 L -137.5765625 -4.34 Q -135.6365625 -4.34 -134.6365625 -5.07 Q -133.6365625 -5.81 -133.6365625 -7.01 Z M -121.356875 -31.59 L -114.58687499999999 -31.59 L -114.58687499999999 -25.36 L -110.246875 -25.36 L -110.246875 -20.39 L -114.58687499999999 -20.39 L -114.58687499999999 -7.73 Q -114.58687499999999 -6.33 -114.046875 -5.72 Q -113.50687500000001 -5.11 -111.986875 -5.11 L -111.986875 -5.11 Q -110.856875 -5.11 -109.996875 -5.27 L -109.996875 -5.27 L -109.996875 -0.14 Q -111.986875 0.47 -114.096875 0.47 L -114.096875 0.47 Q -121.216875 0.47 -121.356875 -6.73 L -121.356875 -6.73 L -121.356875 -20.39 L -125.066875 -20.39 L -125.066875 -25.36 L -121.356875 -25.36 L -121.356875 -31.59 Z M -69.80125 -34.13 L -69.80125 -28.43 L -80.25125 -28.43 L -80.25125 0 L -87.28125 0 L -87.28125 -28.43 L -97.59125 -28.43 L -97.59125 -34.13 L -69.80125 -34.13 Z M -72.1609375 -12.61 L -72.1609375 -12.91 Q -72.1609375 -16.69 -70.7109375 -19.64 Q -69.2609375 -22.59 -66.5309375 -24.21 Q -63.8009375 -25.83 -60.190937500000004 -25.83 L -60.190937500000004 -25.83 Q -55.0509375 -25.83 -51.8109375 -22.69 Q -48.5609375 -19.55 -48.190937500000004 -14.16 L -48.190937500000004 -14.16 L -48.1409375 -12.42 Q -48.1409375 -6.59 -51.4009375 -3.06 Q -54.6609375 0.47 -60.1409375 0.47 Q -65.6209375 0.47 -68.8909375 -3.05 Q -72.1609375 -6.56 -72.1609375 -12.61 L -72.1609375 -12.61 Z M -65.3909375 -12.42 L -65.3909375 -12.42 Q -65.3909375 -8.81 -64.0309375 -6.9 Q -62.6709375 -4.99 -60.1409375 -4.99 L -60.1409375 -4.99 Q -57.6809375 -4.99 -56.3009375 -6.88 Q -54.9109375 -8.77 -54.9109375 -12.91 L -54.9109375 -12.91 Q -54.9109375 -16.45 -56.3009375 -18.4 Q -57.6809375 -20.34 -60.190937500000004 -20.34 L -60.190937500000004 -20.34 Q -62.6709375 -20.34 -64.0309375 -18.41 Q -65.3909375 -16.48 -65.3909375 -12.42 Z M -45.0203125 -12.61 L -45.0203125 -12.91 Q -45.0203125 -16.69 -43.5703125 -19.64 Q -42.1203125 -22.59 -39.3903125 -24.21 Q -36.6603125 -25.83 -33.050312500000004 -25.83 L -33.050312500000004 -25.83 Q -27.9103125 -25.83 -24.6703125 -22.69 Q -21.4203125 -19.55 -21.0503125 -14.16 L -21.0503125 -14.16 L -21.0003125 -12.42 Q -21.0003125 -6.59 -24.2603125 -3.06 Q -27.5203125 0.47 -33.0003125 0.47 Q -38.4803125 0.47 -41.7503125 -3.05 Q -45.0203125 -6.56 -45.0203125 -12.61 L -45.0203125 -12.61 Z M -38.2503125 -12.42 L -38.2503125 -12.42 Q -38.2503125 -8.81 -36.8903125 -6.9 Q -35.5303125 -4.99 -33.0003125 -4.99 L -33.0003125 -4.99 Q -30.5403125 -4.99 -29.1603125 -6.88 Q -27.7703125 -8.77 -27.7703125 -12.91 L -27.7703125 -12.91 Q -27.7703125 -16.45 -29.1603125 -18.4 Q -30.5403125 -20.34 -33.050312500000004 -20.34 L -33.050312500000004 -20.34 Q -35.5303125 -20.34 -36.8903125 -18.41 Q -38.2503125 -16.48 -38.2503125 -12.42 Z M -9.6796875 -36 L -9.6796875 0 L -16.4796875 0 L -16.4796875 -36 L -9.6796875 -36 Z M 9.636875 -7.01 L 9.636875 -7.01 Q 9.636875 -8.25 8.406875 -8.96 Q 7.176875000000001 -9.68 4.456875 -10.24 L 4.456875 -10.24 Q -4.593125000000001 -12.14 -4.593125000000001 -17.93 L -4.593125000000001 -17.93 Q -4.593125000000001 -21.3 -1.7931249999999999 -23.57 Q 1.006875 -25.83 5.526875 -25.83 L 5.526875 -25.83 Q 10.356874999999999 -25.83 13.256875 -23.55 Q 16.146875 -21.28 16.146875 -17.65 L 16.146875 -17.65 L 9.376874999999998 -17.65 Q 9.376874999999998 -19.1 8.436875 -20.05 Q 7.496874999999999 -21 5.506875000000001 -21 L 5.506875000000001 -21 Q 3.796875 -21 2.8568750000000005 -20.23 Q 1.9268750000000008 -19.45 1.9268750000000008 -18.26 L 1.9268750000000008 -18.26 Q 1.9268750000000008 -17.13 2.9868749999999995 -16.44 Q 4.056875 -15.75 6.586874999999999 -15.25 Q 9.116875 -14.74 10.846875 -14.11 L 10.846875 -14.11 Q 16.216875 -12.14 16.216875 -7.29 L 16.216875 -7.29 Q 16.216875 -3.82 13.246875 -1.68 Q 10.266874999999999 0.47 5.556875 0.47 L 5.556875 0.47 Q 2.3668750000000003 0.47 -0.10312500000000036 -0.67 Q -2.573125 -1.8 -3.983125 -3.79 Q -5.3931249999999995 -5.77 -5.3931249999999995 -8.06 L -5.3931249999999995 -8.06 L 1.0268750000000004 -8.06 Q 1.126875 -6.26 2.3668750000000003 -5.3 Q 3.6068750000000005 -4.34 5.696875 -4.34 L 5.696875 -4.34 Q 7.636875 -4.34 8.636875 -5.07 Q 9.636875 -5.81 9.636875 -7.01 Z M 53.5096875 -19.62 L 53.5096875 -13.95 L 40.0096875 -13.95 L 40.0096875 0 L 32.9796875 0 L 32.9796875 -34.13 L 55.199687499999996 -34.13 L 55.199687499999996 -28.43 L 40.0096875 -28.43 L 40.0096875 -19.62 L 53.5096875 -19.62 Z M 57.284375 -12.61 L 57.284375 -12.91 Q 57.284375 -16.69 58.734375 -19.64 Q 60.184375 -22.59 62.914375 -24.21 Q 65.644375 -25.83 69.254375 -25.83 L 69.254375 -25.83 Q 74.394375 -25.83 77.634375 -22.69 Q 80.884375 -19.55 81.254375 -14.16 L 81.254375 -14.16 L 81.304375 -12.42 Q 81.304375 -6.59 78.044375 -3.06 Q 74.784375 0.47 69.304375 0.47 Q 63.824375 0.47 60.554375 -3.05 Q 57.284375 -6.56 57.284375 -12.61 L 57.284375 -12.61 Z M 64.054375 -12.42 L 64.054375 -12.42 Q 64.054375 -8.81 65.414375 -6.9 Q 66.77437499999999 -4.99 69.304375 -4.99 L 69.304375 -4.99 Q 71.764375 -4.99 73.144375 -6.88 Q 74.534375 -8.77 74.534375 -12.91 L 74.534375 -12.91 Q 74.534375 -16.45 73.144375 -18.4 Q 71.764375 -20.34 69.254375 -20.34 L 69.254375 -20.34 Q 66.77437499999999 -20.34 65.414375 -18.41 Q 64.054375 -16.48 64.054375 -12.42 Z M 99.825 -25.52 L 99.725 -19.01 Q 98.345 -19.2 97.285 -19.2 L 97.285 -19.2 Q 93.445 -19.2 92.255 -16.59 L 92.255 -16.59 L 92.255 0 L 85.475 0 L 85.475 -25.36 L 91.875 -25.36 L 92.065 -22.34 Q 94.105 -25.83 97.715 -25.83 L 97.715 -25.83 Q 98.83500000000001 -25.83 99.825 -25.52 L 99.825 -25.52 Z M 136.3559375 -34.13 L 141.9659375 -9.84 L 146.5559375 -34.13 L 153.5659375 -34.13 L 145.9959375 0 L 138.91593749999998 0 L 133.3559375 -22.83 L 127.8059375 0 L 120.7259375 0 L 113.1559375 -34.13 L 120.1659375 -34.13 L 124.7859375 -9.89 L 130.4059375 -34.13 L 136.3559375 -34.13 Z M 167.8559375 0.47 L 167.8559375 0.47 Q 162.2859375 0.47 158.7759375 -2.95 Q 155.2759375 -6.38 155.2759375 -12.07 L 155.2759375 -12.07 L 155.2759375 -12.73 Q 155.2759375 -16.55 156.7459375 -19.56 Q 158.2259375 -22.57 160.9359375 -24.2 Q 163.6359375 -25.83 167.1059375 -25.83 L 167.1059375 -25.83 Q 172.3159375 -25.83 175.2959375 -22.55 Q 178.2859375 -19.27 178.2859375 -13.24 L 178.2859375 -13.24 L 178.2859375 -10.48 L 162.1359375 -10.48 Q 162.4659375 -7.99 164.1259375 -6.49 Q 165.7759375 -4.99 168.3059375 -4.99 L 168.3059375 -4.99 Q 172.2159375 -4.99 174.4259375 -7.83 L 174.4259375 -7.83 L 177.7459375 -4.1 Q 176.2259375 -1.95 173.6259375 -0.74 Q 171.0259375 0.47 167.8559375 0.47 Z M 167.0859375 -20.34 L 167.0859375 -20.34 Q 165.0659375 -20.34 163.8159375 -18.98 Q 162.5659375 -17.63 162.2159375 -15.09 L 162.2159375 -15.09 L 171.6359375 -15.09 L 171.6359375 -15.63 Q 171.5859375 -17.88 170.41593749999998 -19.11 Q 169.2459375 -20.34 167.0859375 -20.34 Z M 204.98125 -12.82 L 204.98125 -12.45 Q 204.98125 -6.35 202.38125 -2.94 Q 199.78125 0.47 195.12125 0.47 L 195.12125 0.47 Q 190.99125 0.47 188.53125 -2.7 L 188.53125 -2.7 L 188.23125 0 L 182.13125 0 L 182.13125 -36 L 188.91125 -36 L 188.91125 -23.09 Q 191.25125 -25.83 195.07125 -25.83 L 195.07125 -25.83 Q 199.71125 -25.83 202.35125 -22.42 Q 204.98125 -19.01 204.98125 -12.82 L 204.98125 -12.82 Z M 198.21125 -12.94 L 198.21125 -12.94 Q 198.21125 -16.78 196.99125 -18.55 Q 195.77125 -20.32 193.36125 -20.32 L 193.36125 -20.32 Q 190.12125 -20.32 188.91125 -17.67 L 188.91125 -17.67 L 188.91125 -7.66 Q 190.15125 -4.99 193.41125 -4.99 L 193.41125 -4.99 Q 196.69125 -4.99 197.72125 -8.23 L 197.72125 -8.23 Q 198.21125 -9.77 198.21125 -12.94 Z" stroke-linecap="round" />
</g>
		<g transform="matrix(0.21 0 0 0.21 2.43 39.06)"  >
<path style="stroke: none; stroke-width: 1; stroke-dasharray: none; stroke-linecap: butt; stroke-dashoffset: 0; stroke-linejoin: miter; stroke-miterlimit: 4; fill: rgb(56,78,111); fill-rule: nonzero; opacity: 1;" vector-effect="non-scaling-stroke"  transform=" translate(-11.82, 13.01)" d="M -406.22625 -34.13 L -400.69625 -34.13 L -391.78625 -6.28 L -382.88625 -34.13 L -377.35625 -34.13 L -377.35625 0 L -381.63625 0 L -381.63625 -13.29 L -381.24625 -26.6 L -390.17625 0 L -393.45625 0 L -402.33625 -26.51 L -401.93625 -13.29 L -401.93625 0 L -406.22625 0 L -406.22625 -34.13 Z M -343.1884375 0 L -347.4984375 0 Q -347.8784375 -0.82 -348.0384375 -2.77 L -348.0384375 -2.77 Q -350.2384375 0.47 -353.6684375 0.47 L -353.6684375 0.47 Q -357.1084375 0.47 -359.0384375 -1.46 Q -360.9784375 -3.4 -360.9784375 -6.91 L -360.9784375 -6.91 Q -360.9784375 -10.78 -358.3484375 -13.05 Q -355.7284375 -15.33 -351.1584375 -15.38 L -351.1584375 -15.38 L -348.1084375 -15.38 L -348.1084375 -18.07 Q -348.1084375 -20.34 -349.1184375 -21.3 Q -350.1284375 -22.27 -352.1884375 -22.27 L -352.1884375 -22.27 Q -354.0584375 -22.27 -355.2384375 -21.15 Q -356.4084375 -20.04 -356.4084375 -18.33 L -356.4084375 -18.33 L -360.5584375 -18.33 Q -360.5584375 -20.27 -359.4084375 -22.04 Q -358.2584375 -23.81 -356.3084375 -24.82 Q -354.3684375 -25.83 -351.9784375 -25.83 L -351.9784375 -25.83 Q -348.0884375 -25.83 -346.0584375 -23.89 Q -344.0284375 -21.96 -343.9884375 -18.26 L -343.9884375 -18.26 L -343.9884375 -5.46 Q -343.9584375 -2.53 -343.1884375 -0.38 L -343.1884375 -0.38 L -343.1884375 0 Z M -353.0284375 -3.3 L -353.0284375 -3.3 Q -351.5084375 -3.3 -350.1284375 -4.15 Q -348.7384375 -4.99 -348.1084375 -6.26 L -348.1084375 -6.26 L -348.1084375 -12.3 L -350.4484375 -12.3 Q -353.4084375 -12.26 -355.1184375 -10.98 Q -356.8284375 -9.7 -356.8284375 -7.41 L -356.8284375 -7.41 Q -356.8284375 -5.25 -355.9584375 -4.28 Q -355.0984375 -3.3 -353.0284375 -3.3 Z M -314.29625 0 L -321.18625 -11.6 L -323.38625 -9.07 L -323.38625 0 L -327.53625 0 L -327.53625 -36 L -323.38625 -36 L -323.38625 -14.46 L -315.49625 -25.36 L -310.52625 -25.36 L -318.58625 -14.77 L -309.46625 0 L -314.29625 0 Z M -291.4534375 -25.36 L -291.4534375 0 L -295.6034375 0 L -295.6034375 -25.36 L -291.4534375 -25.36 Z M -291.1234375 -32.09 L -291.1234375 -32.09 Q -291.1234375 -31.03 -291.7134375 -30.33 Q -292.2934375 -29.63 -293.4934375 -29.63 L -293.4934375 -29.63 Q -294.6634375 -29.63 -295.2534375 -30.33 Q -295.8334375 -31.03 -295.8334375 -32.09 Q -295.8334375 -33.14 -295.2534375 -33.87 Q -294.6634375 -34.59 -293.4934375 -34.59 Q -292.3234375 -34.59 -291.7234375 -33.86 Q -291.1234375 -33.12 -291.1234375 -32.09 Z M -274.94125 -25.36 L -271.02125 -25.36 L -270.90125 -22.62 Q -268.49125 -25.83 -264.74125 -25.83 L -264.74125 -25.83 Q -258.01125 -25.83 -257.92125 -16.85 L -257.92125 -16.85 L -257.92125 0 L -262.05125 0 L -262.05125 -16.66 Q -262.05125 -19.64 -263.04125 -20.89 Q -264.04125 -22.15 -266.03125 -22.15 L -266.03125 -22.15 Q -267.58125 -22.15 -268.81125 -21.12 Q -270.04125 -20.09 -270.79125 -18.42 L -270.79125 -18.42 L -270.79125 0 L -274.94125 0 L -274.94125 -25.36 Z M -242.5346875 -11.02 L -242.5346875 -13.83 Q -242.5346875 -19.76 -240.3746875 -22.79 Q -238.2146875 -25.83 -234.0746875 -25.83 L -234.0746875 -25.83 Q -230.2046875 -25.83 -228.1846875 -22.52 L -228.1846875 -22.52 L -227.97468750000002 -25.36 L -224.22468750000002 -25.36 L -224.22468750000002 0.23 Q -224.22468750000002 4.95 -226.6446875 7.46 Q -229.0546875 9.98 -233.3646875 9.98 L -233.3646875 9.98 Q -235.2446875 9.98 -237.5746875 9.06 Q -239.9046875 8.13 -241.0746875 6.77 L -241.0746875 6.77 L -239.3946875 3.91 Q -236.8146875 6.45 -233.6946875 6.45 L -233.6946875 6.45 Q -228.5146875 6.45 -228.3746875 0.8 L -228.3746875 0.8 L -228.3746875 -2.51 Q -230.3946875 0.47 -234.0946875 0.47 L -234.0946875 0.47 Q -238.0346875 0.47 -240.2346875 -2.5 Q -242.4346875 -5.46 -242.5346875 -11.02 L -242.5346875 -11.02 Z M -238.3846875 -13.99 L -238.3846875 -11.46 Q -238.3846875 -7.2 -237.1246875 -5.19 Q -235.8746875 -3.19 -233.0146875 -3.19 L -233.0146875 -3.19 Q -229.9246875 -3.19 -228.3746875 -6.35 L -228.3746875 -6.35 L -228.3746875 -19.03 Q -229.9946875 -22.15 -232.9646875 -22.15 L -232.9646875 -22.15 Q -235.8246875 -22.15 -237.0946875 -20.14 Q -238.3546875 -18.14 -238.3846875 -13.99 L -238.3846875 -13.99 Z M -178.2540625 -3.07 L -178.2540625 -3.07 Q -176.1940625 -3.07 -174.9540625 -4.35 Q -173.7140625 -5.63 -173.5940625 -7.99 L -173.5940625 -7.99 L -169.6840625 -7.99 Q -169.8240625 -4.34 -172.2740625 -1.93 Q -174.7140625 0.47 -178.2540625 0.47 L -178.2540625 0.47 Q -182.9640625 0.47 -185.4440625 -2.5 Q -187.9140625 -5.46 -187.9140625 -11.32 L -187.9140625 -11.32 L -187.9140625 -14.11 Q -187.9140625 -19.85 -185.4540625 -22.84 Q -182.9940625 -25.83 -178.2840625 -25.83 L -178.2840625 -25.83 Q -174.3940625 -25.83 -172.1040625 -23.37 Q -169.8240625 -20.91 -169.6840625 -16.64 L -169.6840625 -16.64 L -173.5940625 -16.64 Q -173.7340625 -19.45 -174.9440625 -20.86 Q -176.1440625 -22.27 -178.2840625 -22.27 L -178.2840625 -22.27 Q -181.0440625 -22.27 -182.3840625 -20.45 Q -183.7140625 -18.63 -183.7640625 -14.48 L -183.7640625 -14.48 L -183.7640625 -11.25 Q -183.7640625 -6.77 -182.4440625 -4.92 Q -181.1140625 -3.07 -178.2540625 -3.07 Z M -155.7621875 -11.09 L -155.7621875 -13.85 Q -155.7621875 -19.38 -153.0821875 -22.61 Q -150.4021875 -25.83 -145.9921875 -25.83 Q -141.5821875 -25.83 -138.9021875 -22.69 Q -136.2221875 -19.55 -136.1521875 -14.13 L -136.1521875 -14.13 L -136.1521875 -11.46 Q -136.1521875 -5.95 -138.82218749999998 -2.74 Q -141.4921875 0.47 -145.9421875 0.47 L -145.9421875 0.47 Q -150.3521875 0.47 -153.0121875 -2.65 Q -155.6721875 -5.77 -155.7621875 -11.09 L -155.7621875 -11.09 Z M -151.6121875 -13.88 L -151.6121875 -11.46 Q -151.6121875 -7.55 -150.0821875 -5.31 Q -148.5421875 -3.07 -145.9421875 -3.07 L -145.9421875 -3.07 Q -140.4621875 -3.07 -140.2921875 -10.99 L -140.2921875 -10.99 L -140.2921875 -13.85 Q -140.2921875 -17.74 -141.8421875 -20 Q -143.3921875 -22.27 -145.9921875 -22.27 L -145.9921875 -22.27 Q -148.5421875 -22.27 -150.0821875 -20 Q -151.6121875 -17.74 -151.6121875 -13.88 L -151.6121875 -13.88 Z M -120.7784375 -25.36 L -116.8884375 -25.36 L -116.7984375 -23.02 Q -114.4784375 -25.83 -110.6784375 -25.83 L -110.6784375 -25.83 Q -106.43843749999999 -25.83 -104.7484375 -22.15 L -104.7484375 -22.15 Q -102.35843750000001 -25.83 -98.0984375 -25.83 L -98.0984375 -25.83 Q -91.0884375 -25.83 -90.91843750000001 -17.09 L -90.91843750000001 -17.09 L -90.91843750000001 0 L -95.0484375 0 L -95.0484375 -16.69 Q -95.0484375 -19.45 -96.0284375 -20.8 Q -97.0184375 -22.15 -99.35843750000001 -22.15 L -99.35843750000001 -22.15 Q -101.2384375 -22.15 -102.4084375 -20.7 Q -103.5784375 -19.24 -103.7684375 -16.99 L -103.7684375 -16.99 L -103.7684375 0 L -107.93843749999999 0 L -107.93843749999999 -16.88 Q -108.0084375 -22.15 -112.2284375 -22.15 L -112.2284375 -22.15 Q -115.3684375 -22.15 -116.6584375 -19.01 L -116.6584375 -19.01 L -116.6584375 0 L -120.7784375 0 L -120.7784375 -25.36 Z M -74.66125 -25.36 L -70.77125 -25.36 L -70.68125 -23.02 Q -68.36125 -25.83 -64.56125 -25.83 L -64.56125 -25.83 Q -60.32125 -25.83 -58.63125 -22.15 L -58.63125 -22.15 Q -56.24125 -25.83 -51.98125 -25.83 L -51.98125 -25.83 Q -44.97125 -25.83 -44.80125 -17.09 L -44.80125 -17.09 L -44.80125 0 L -48.93125 0 L -48.93125 -16.69 Q -48.93125 -19.45 -49.911249999999995 -20.8 Q -50.901250000000005 -22.15 -53.24125 -22.15 L -53.24125 -22.15 Q -55.12125 -22.15 -56.291250000000005 -20.7 Q -57.46125 -19.24 -57.651250000000005 -16.99 L -57.651250000000005 -16.99 L -57.651250000000005 0 L -61.82125 0 L -61.82125 -16.88 Q -61.89125 -22.15 -66.11125 -22.15 L -66.11125 -22.15 Q -69.25125 -22.15 -70.54125 -19.01 L -70.54125 -19.01 L -70.54125 0 L -74.66125 0 L -74.66125 -25.36 Z M -29.4340625 -11.09 L -29.4340625 -13.85 Q -29.4340625 -19.38 -26.7540625 -22.61 Q -24.0740625 -25.83 -19.6640625 -25.83 Q -15.2540625 -25.83 -12.5740625 -22.69 Q -9.8940625 -19.55 -9.8240625 -14.13 L -9.8240625 -14.13 L -9.8240625 -11.46 Q -9.8240625 -5.95 -12.494062499999998 -2.74 Q -15.1640625 0.47 -19.6140625 0.47 L -19.6140625 0.47 Q -24.0240625 0.47 -26.6840625 -2.65 Q -29.3440625 -5.77 -29.4340625 -11.09 L -29.4340625 -11.09 Z M -25.2840625 -13.88 L -25.2840625 -11.46 Q -25.2840625 -7.55 -23.7540625 -5.31 Q -22.2140625 -3.07 -19.6140625 -3.07 L -19.6140625 -3.07 Q -14.134062499999999 -3.07 -13.9640625 -10.99 L -13.9640625 -10.99 L -13.9640625 -13.85 Q -13.9640625 -17.74 -15.514062500000001 -20 Q -17.0640625 -22.27 -19.6640625 -22.27 L -19.6640625 -22.27 Q -22.2140625 -22.27 -23.7540625 -20 Q -25.2840625 -17.74 -25.2840625 -13.88 L -25.2840625 -13.88 Z M 5.5196875 -25.36 L 9.4396875 -25.36 L 9.559687499999999 -22.62 Q 11.9696875 -25.83 15.7196875 -25.83 L 15.7196875 -25.83 Q 22.4496875 -25.83 22.5396875 -16.85 L 22.5396875 -16.85 L 22.5396875 0 L 18.4096875 0 L 18.4096875 -16.66 Q 18.4096875 -19.64 17.419687500000002 -20.89 Q 16.419687500000002 -22.15 14.4296875 -22.15 L 14.4296875 -22.15 Q 12.8796875 -22.15 11.6496875 -21.12 Q 10.4196875 -20.09 9.6696875 -18.42 L 9.6696875 -18.42 L 9.6696875 0 L 5.5196875 0 L 5.5196875 -25.36 Z M 61.0584375 -31.5 L 65.1784375 -31.5 L 65.1784375 -25.36 L 68.9984375 -25.36 L 68.9984375 -22.01 L 65.1784375 -22.01 L 65.1784375 -6.28 Q 65.1784375 -4.78 65.6684375 -4.01 Q 66.1684375 -3.23 67.35843750000001 -3.23 L 67.35843750000001 -3.23 Q 68.1784375 -3.23 69.0284375 -3.52 L 69.0284375 -3.52 L 68.9784375 0 Q 67.5684375 0.47 66.0984375 0.47 L 66.0984375 0.47 Q 63.628437500000004 0.47 62.3484375 -1.29 Q 61.0584375 -3.05 61.0584375 -6.26 L 61.0584375 -6.26 L 61.0584375 -22.01 L 57.1884375 -22.01 L 57.1884375 -25.36 L 61.0584375 -25.36 L 61.0584375 -31.5 Z M 101.28812500000001 0 L 96.978125 0 Q 96.598125 -0.82 96.438125 -2.77 L 96.438125 -2.77 Q 94.238125 0.47 90.808125 0.47 L 90.808125 0.47 Q 87.368125 0.47 85.438125 -1.46 Q 83.498125 -3.4 83.498125 -6.91 L 83.498125 -6.91 Q 83.498125 -10.78 86.128125 -13.05 Q 88.748125 -15.33 93.318125 -15.38 L 93.318125 -15.38 L 96.36812499999999 -15.38 L 96.36812499999999 -18.07 Q 96.36812499999999 -20.34 95.358125 -21.3 Q 94.348125 -22.27 92.28812500000001 -22.27 L 92.28812500000001 -22.27 Q 90.418125 -22.27 89.238125 -21.15 Q 88.068125 -20.04 88.068125 -18.33 L 88.068125 -18.33 L 83.918125 -18.33 Q 83.918125 -20.27 85.068125 -22.04 Q 86.218125 -23.81 88.168125 -24.82 Q 90.108125 -25.83 92.498125 -25.83 L 92.498125 -25.83 Q 96.388125 -25.83 98.418125 -23.89 Q 100.448125 -21.96 100.488125 -18.26 L 100.488125 -18.26 L 100.488125 -5.46 Q 100.518125 -2.53 101.28812500000001 -0.38 L 101.28812500000001 -0.38 L 101.28812500000001 0 Z M 91.448125 -3.3 L 91.448125 -3.3 Q 92.968125 -3.3 94.348125 -4.15 Q 95.738125 -4.99 96.36812499999999 -6.26 L 96.36812499999999 -6.26 L 96.36812499999999 -12.3 L 94.028125 -12.3 Q 91.068125 -12.26 89.358125 -10.98 Q 87.648125 -9.7 87.648125 -7.41 L 87.648125 -7.41 Q 87.648125 -5.25 88.518125 -4.28 Q 89.378125 -3.3 91.448125 -3.3 Z M 129.2403125 -6.49 L 129.2403125 -6.49 Q 129.2403125 -7.83 128.2303125 -8.79 Q 127.2303125 -9.75 124.3403125 -11.04 L 124.3403125 -11.04 Q 120.9903125 -12.42 119.6203125 -13.41 Q 118.2503125 -14.39 117.5703125 -15.64 Q 116.8903125 -16.9 116.8903125 -18.63 L 116.8903125 -18.63 Q 116.8903125 -21.73 119.1503125 -23.78 Q 121.4103125 -25.83 124.9303125 -25.83 L 124.9303125 -25.83 Q 128.6303125 -25.83 130.8803125 -23.67 Q 133.1303125 -21.52 133.1303125 -18.14 L 133.1303125 -18.14 L 129.0103125 -18.14 Q 129.0103125 -19.85 127.86031249999999 -21.06 Q 126.7103125 -22.27 124.9303125 -22.27 L 124.9303125 -22.27 Q 123.1003125 -22.27 122.0603125 -21.32 Q 121.0203125 -20.37 121.0203125 -18.77 L 121.0203125 -18.77 Q 121.0203125 -17.51 121.7803125 -16.73 Q 122.5403125 -15.96 125.4503125 -14.7 L 125.4503125 -14.7 Q 130.0603125 -12.89 131.7303125 -11.17 Q 133.3903125 -9.45 133.3903125 -6.8 L 133.3903125 -6.8 Q 133.3903125 -3.49 131.1203125 -1.51 Q 128.8403125 0.47 125.0203125 0.47 L 125.0203125 0.47 Q 121.0603125 0.47 118.6003125 -1.8 Q 116.1403125 -4.08 116.1403125 -7.57 L 116.1403125 -7.57 L 120.3103125 -7.57 Q 120.3803125 -5.46 121.6003125 -4.27 Q 122.8203125 -3.07 125.0203125 -3.07 L 125.0203125 -3.07 Q 127.0903125 -3.07 128.1603125 -4 Q 129.2403125 -4.92 129.2403125 -6.49 Z M 162.0475 0 L 155.1575 -11.6 L 152.9575 -9.07 L 152.9575 0 L 148.8075 0 L 148.8075 -36 L 152.9575 -36 L 152.9575 -14.46 L 160.8475 -25.36 L 165.8175 -25.36 L 157.7575 -14.77 L 166.8775 0 L 162.0475 0 Z M 192.7403125 -6.49 L 192.7403125 -6.49 Q 192.7403125 -7.83 191.7303125 -8.79 Q 190.7303125 -9.75 187.8403125 -11.04 L 187.8403125 -11.04 Q 184.4903125 -12.42 183.1203125 -13.41 Q 181.7503125 -14.39 181.0703125 -15.64 Q 180.3903125 -16.9 180.3903125 -18.63 L 180.3903125 -18.63 Q 180.3903125 -21.73 182.6503125 -23.78 Q 184.9103125 -25.83 188.4303125 -25.83 L 188.4303125 -25.83 Q 192.1303125 -25.83 194.3803125 -23.67 Q 196.6303125 -21.52 196.6303125 -18.14 L 196.6303125 -18.14 L 192.5103125 -18.14 Q 192.5103125 -19.85 191.3603125 -21.06 Q 190.2103125 -22.27 188.4303125 -22.27 L 188.4303125 -22.27 Q 186.6003125 -22.27 185.5603125 -21.32 Q 184.5203125 -20.37 184.5203125 -18.77 L 184.5203125 -18.77 Q 184.5203125 -17.51 185.2803125 -16.73 Q 186.0403125 -15.96 188.9503125 -14.7 L 188.9503125 -14.7 Q 193.5603125 -12.89 195.2303125 -11.17 Q 196.8903125 -9.45 196.8903125 -6.8 L 196.8903125 -6.8 Q 196.8903125 -3.49 194.6203125 -1.51 Q 192.3403125 0.47 188.5203125 0.47 L 188.5203125 0.47 Q 184.5603125 0.47 182.1003125 -1.8 Q 179.6403125 -4.08 179.6403125 -7.57 L 179.6403125 -7.57 L 183.8103125 -7.57 Q 183.8803125 -5.46 185.1003125 -4.27 Q 186.3203125 -3.07 188.5203125 -3.07 L 188.5203125 -3.07 Q 190.5903125 -3.07 191.6603125 -4 Q 192.7403125 -4.92 192.7403125 -6.49 Z M 245.5996875 -6.49 L 245.5996875 -6.49 Q 245.5996875 -7.83 244.5896875 -8.79 Q 243.5896875 -9.75 240.6996875 -11.04 L 240.6996875 -11.04 Q 237.3496875 -12.42 235.9796875 -13.41 Q 234.6096875 -14.39 233.9296875 -15.64 Q 233.2496875 -16.9 233.2496875 -18.63 L 233.2496875 -18.63 Q 233.2496875 -21.73 235.5096875 -23.78 Q 237.7696875 -25.83 241.2896875 -25.83 L 241.2896875 -25.83 Q 244.9896875 -25.83 247.2396875 -23.67 Q 249.4896875 -21.52 249.4896875 -18.14 L 249.4896875 -18.14 L 245.3696875 -18.14 Q 245.3696875 -19.85 244.2196875 -21.06 Q 243.0696875 -22.27 241.2896875 -22.27 L 241.2896875 -22.27 Q 239.4596875 -22.27 238.4196875 -21.32 Q 237.3796875 -20.37 237.3796875 -18.77 L 237.3796875 -18.77 Q 237.3796875 -17.51 238.1396875 -16.73 Q 238.8996875 -15.96 241.8096875 -14.7 L 241.8096875 -14.7 Q 246.4196875 -12.89 248.0896875 -11.17 Q 249.7496875 -9.45 249.7496875 -6.8 L 249.7496875 -6.8 Q 249.7496875 -3.49 247.4796875 -1.51 Q 245.1996875 0.47 241.3796875 0.47 L 241.3796875 0.47 Q 237.4196875 0.47 234.9596875 -1.8 Q 232.4996875 -4.08 232.4996875 -7.57 L 232.4996875 -7.57 L 236.6696875 -7.57 Q 236.7396875 -5.46 237.9596875 -4.27 Q 239.1796875 -3.07 241.3796875 -3.07 L 241.3796875 -3.07 Q 243.4496875 -3.07 244.5196875 -4 Q 245.5996875 -4.92 245.5996875 -6.49 Z M 269.616875 -25.36 L 269.616875 0 L 265.466875 0 L 265.466875 -25.36 L 269.616875 -25.36 Z M 269.946875 -32.09 L 269.946875 -32.09 Q 269.946875 -31.03 269.356875 -30.33 Q 268.776875 -29.63 267.576875 -29.63 L 267.576875 -29.63 Q 266.406875 -29.63 265.816875 -30.33 Q 265.236875 -31.03 265.236875 -32.09 Q 265.236875 -33.14 265.816875 -33.87 Q 266.406875 -34.59 267.576875 -34.59 Q 268.746875 -34.59 269.346875 -33.86 Q 269.946875 -33.12 269.946875 -32.09 Z M 286.1590625 -25.36 L 290.0490625 -25.36 L 290.1390625 -23.02 Q 292.4590625 -25.83 296.2590625 -25.83 L 296.2590625 -25.83 Q 300.4990625 -25.83 302.1890625 -22.15 L 302.1890625 -22.15 Q 304.5790625 -25.83 308.8390625 -25.83 L 308.8390625 -25.83 Q 315.8490625 -25.83 316.0190625 -17.09 L 316.0190625 -17.09 L 316.0190625 0 L 311.8890625 0 L 311.8890625 -16.69 Q 311.8890625 -19.45 310.9090625 -20.8 Q 309.9190625 -22.15 307.5790625 -22.15 L 307.5790625 -22.15 Q 305.6990625 -22.15 304.5290625 -20.7 Q 303.3590625 -19.24 303.1690625 -16.99 L 303.1690625 -16.99 L 303.1690625 0 L 298.9990625 0 L 298.9990625 -16.88 Q 298.9290625 -22.15 294.7090625 -22.15 L 294.7090625 -22.15 Q 291.5690625 -22.15 290.2790625 -19.01 L 290.2790625 -19.01 L 290.2790625 0 L 286.1590625 0 L 286.1590625 -25.36 Z M 350.57625 -14.23 L 350.57625 -11.46 Q 350.57625 -5.44 348.40625 -2.48 Q 346.24625 0.47 342.28625 0.47 L 342.28625 0.47 Q 338.45625 0.47 336.39625 -2.41 L 336.39625 -2.41 L 336.39625 9.75 L 332.27625 9.75 L 332.27625 -25.36 L 336.02625 -25.36 L 336.23625 -22.55 Q 338.31625 -25.83 342.20625 -25.83 L 342.20625 -25.83 Q 346.38625 -25.83 348.44625 -22.92 Q 350.50625 -20.02 350.57625 -14.23 L 350.57625 -14.23 Z M 346.45625 -11.3 L 346.45625 -13.83 Q 346.45625 -18.09 345.13625 -20.12 Q 343.82625 -22.15 340.92625 -22.15 L 340.92625 -22.15 Q 337.94625 -22.15 336.39625 -19.17 L 336.39625 -19.17 L 336.39625 -5.98 Q 337.92625 -3.07 340.96625 -3.07 L 340.96625 -3.07 Q 343.78625 -3.07 345.10625 -5.1 Q 346.42625 -7.13 346.45625 -11.3 L 346.45625 -11.3 Z M 370.398125 -36 L 370.398125 0 L 366.248125 0 L 366.248125 -36 L 370.398125 -36 Z M 395.9803125 0.47 L 395.9803125 0.47 Q 391.2503125 0.47 388.7203125 -2.36 Q 386.1903125 -5.18 386.1403125 -10.64 L 386.1403125 -10.64 L 386.1403125 -13.71 Q 386.1403125 -19.38 388.6103125 -22.61 Q 391.0903125 -25.83 395.5203125 -25.83 L 395.5203125 -25.83 Q 399.9703125 -25.83 402.1703125 -22.99 Q 404.3703125 -20.16 404.4203125 -14.16 L 404.4203125 -14.16 L 404.4203125 -11.44 L 390.2703125 -11.44 L 390.2703125 -10.85 Q 390.2703125 -6.77 391.8003125 -4.92 Q 393.3403125 -3.07 396.2203125 -3.07 L 396.2203125 -3.07 Q 398.0503125 -3.07 399.4403125 -3.76 Q 400.8403125 -4.45 402.0503125 -5.95 L 402.0503125 -5.95 L 404.2103125 -3.33 Q 401.5203125 0.47 395.9803125 0.47 Z M 395.5203125 -22.27 L 395.5203125 -22.27 Q 392.9403125 -22.27 391.7003125 -20.5 Q 390.4503125 -18.73 390.2903125 -15 L 390.2903125 -15 L 400.2703125 -15 L 400.2703125 -15.56 Q 400.1103125 -19.17 398.9703125 -20.72 Q 397.8403125 -22.27 395.5203125 -22.27 Z M 429.846875 -25.5 L 429.866875 -21.47 Q 428.996875 -21.63 427.996875 -21.63 L 427.996875 -21.63 Q 424.806875 -21.63 423.536875 -18.14 L 423.536875 -18.14 L 423.536875 0 L 419.386875 0 L 419.386875 -25.36 L 423.426875 -25.36 L 423.496875 -22.78 Q 425.156875 -25.83 428.206875 -25.83 L 428.206875 -25.83 Q 429.186875 -25.83 429.846875 -25.5 L 429.846875 -25.5 Z" stroke-linecap="round" />
</g>
		<g transform="matrix(0.12 0 0 0.12 -0.64 -23.87)"  >
<path style="stroke: none; stroke-width: 1; stroke-dasharray: none; stroke-linecap: butt; stroke-dashoffset: 0; stroke-linejoin: miter; stroke-miterlimit: 4; fill: rgb(223,34,139); fill-rule: nonzero; opacity: 1;" vector-effect="non-scaling-stroke"  transform=" translate(-250.85, -257.18)" d="M 372.875 190.321 C 366.373 136.53 333.622 99.092 281.477 99.092 C 272.582 99.092 263.952 97.211 255.72199999999998 99.484 C 227.97799999999998 107.14699999999999 204.78999999999996 126.898 191.37899999999996 153.16199999999998 C 189.65999999999997 156.528 185.64099999999996 158.06699999999998 182.17199999999997 156.56499999999997 C 173.27799999999996 152.71199999999996 163.55299999999997 150.58999999999997 153.36399999999998 150.58999999999997 C 111.01299999999998 150.58999999999997 76.68199999999997 187.24999999999997 76.68199999999997 232.47199999999998 L 76.68199999999997 232.68599999999998 C 76.68299999999998 238.30199999999996 72.56299999999997 242.992 67.02299999999997 243.91899999999998 C 29.68699999999997 250.17 0.7199999999999704 291.346 0.011999999999972033 332.414 C -0.780000000000028 378.378 35.29799999999997 416 78.34999999999997 416 L 364.24499999999995 416 L 405.45199999999994 414.97 C 458.60699999999997 414.97 501.69699999999995 360.76000000000005 501.69699999999995 304.00100000000003 C 501.69699999999995 247.24200000000002 468.90799999999996 201.65400000000005 415.75399999999996 201.65400000000005 z" stroke-linecap="round" />
</g>
		<g transform="matrix(0.12 0 0 0.12 15.91 -24.01)"  >
<path style="stroke: none; stroke-width: 1; stroke-dasharray: none; stroke-linecap: butt; stroke-dashoffset: 0; stroke-linejoin: miter; stroke-miterlimit: 4; fill: rgb(18,30,41); fill-rule: nonzero; opacity: 1;" vector-effect="non-scaling-stroke"  transform=" translate(-383.86, -256)" d="M 415.755 191.351 L 389.399 191.351 C 385.921 191.351 382.904 188.874 382.309 185.447 C 373.485 134.549 331.697 96.001 281.47700000000003 96.001 C 272.58200000000005 96.001 263.95200000000006 97.21000000000001 255.72200000000004 99.483 C 292.09600000000006 109.529 320.639 140.35500000000002 329.583 179.393 C 331.18800000000005 186.398 337.44100000000003 191.35 344.627 191.35 L 364.246 191.35 C 417.40099999999995 191.35 460.491 247.24 460.491 303.999 C 460.491 360.75800000000004 417.40099999999995 415.99800000000005 364.246 415.99800000000005 L 415.755 415.99800000000005 C 468.90999999999997 415.999 512 360.75800000000004 512 304.00000000000006 C 512 247.24200000000008 468.90999999999997 191.35100000000006 415.755 191.35100000000006 z" stroke-linecap="round" />
</g>
		<g transform="matrix(1.06 0 0 1.06 -1.55 -19.93)"  >
<path style="stroke: none; stroke-width: 1; stroke-dasharray: none; stroke-linecap: butt; stroke-dashoffset: 0; stroke-linejoin: miter; stroke-miterlimit: 4; fill: rgb(60,55,224); fill-rule: nonzero; opacity: 1;" vector-effect="non-scaling-stroke"  transform=" translate(-14.32, -9.75)" d="M 9.635 12.041 C 13.23 10.848 16.447 11.456 16.447 11.456 L 16.458 12.392999999999999 C 16.473999999999997 13.906999999999998 16.887999999999998 14.044999999999998 16.887999999999998 14.044999999999998 C 17.866999999999997 14.809999999999999 18.755 13.991999999999997 18.755 13.991999999999997 C 18.755 13.991999999999997 25.017 9.381999999999998 25.180999999999997 9.260999999999997 C 25.345 9.138999999999998 26.313999999999997 8.537999999999997 26.316999999999997 6.961999999999998 C 26.317999999999998 5.383999999999998 24.986999999999995 4.631999999999998 24.986999999999995 4.631999999999998 C 24.986999999999995 4.631999999999998 19.816999999999993 1.1119999999999979 18.774999999999995 0.4029999999999978 C 17.730999999999995 -0.30700000000000216 17.145999999999994 0.1359999999999978 17.145999999999994 0.1359999999999978 C 16.377999999999993 0.6379999999999978 16.447999999999993 1.2959999999999976 16.447999999999993 1.2959999999999976 L 16.447999999999993 3.1359999999999975 C 10.637999999999995 4.328999999999997 6.572999999999993 7.857999999999998 6.572999999999993 7.857999999999998 C 0.9859999999999935 12.608999999999998 2.523999999999993 19.211 2.523999999999993 19.211 C 2.523999999999993 19.211 2.5379999999999927 19.506999999999998 3.103999999999993 19.506999999999998 C 3.746999999999993 19.506999999999998 3.753999999999993 19.110999999999997 3.753999999999993 19.110999999999997 C 4.02 16.863 6.04 13.234 9.635 12.041 z" stroke-linecap="round" />
</g>
		<g transform="matrix(1.06 0 0 1.06 1.56 -7.11)"  >
<path style="stroke: none; stroke-width: 1; stroke-dasharray: none; stroke-linecap: butt; stroke-dashoffset: 0; stroke-linejoin: miter; stroke-miterlimit: 4; fill: rgb(60,55,224); fill-rule: nonzero; opacity: 1;" vector-effect="non-scaling-stroke"  transform=" translate(-17.25, -21.82)" d="M 29.046 12.355 C 29.046 12.355 29.031 12.061 28.468 12.061 C 27.822 12.061 27.818 12.457 27.818 12.457 C 27.55 14.704 25.532 18.332 21.936 19.527 C 18.339 20.719 15.123999999999999 20.111 15.123999999999999 20.111 L 15.113 19.174 C 15.097999999999999 17.656 14.684999999999999 17.522 14.684999999999999 17.522 C 13.706 16.756 12.815999999999999 17.575 12.815999999999999 17.575 C 12.815999999999999 17.575 6.554999999999999 22.186 6.390999999999999 22.307 C 6.225999999999999 22.427999999999997 5.260999999999999 23.029 5.257 24.607 C 5.253 26.182 6.584 26.936 6.584 26.936 C 6.584 26.936 11.751999999999999 30.455 12.795 31.165 C 13.838 31.875999999999998 14.425 31.433999999999997 14.425 31.433999999999997 C 15.192 30.929999999999996 15.123000000000001 30.276999999999997 15.123000000000001 30.276999999999997 L 15.123000000000001 28.433999999999997 C 20.934 27.243 24.998 23.709999999999997 24.998 23.709999999999997 C 30.585 18.958 29.046 12.355 29.046 12.355 z" stroke-linecap="round" />
</g>
</g>
</g>
</svg>